<svg width="26" height="24" viewBox="0 0 26 24" fill="none" xmlns="http://www.w3.org/2000/svg">
<path d="M24.8809 11.8085L14.3153 1.24838L13.607 0.540181C13.4457 0.379883 13.2275 0.289917 13 0.289917C12.7726 0.289917 12.5543 0.379883 12.393 0.540181L1.11916 11.8085C0.953812 11.9732 0.823137 12.1694 0.734846 12.3854C0.646554 12.6015 0.602436 12.833 0.605094 13.0664C0.616031 14.0289 1.4172 14.7972 2.3797 14.7972H3.54181V23.7031H22.4582V14.7972H23.6449C24.1125 14.7972 24.5528 14.614 24.8836 14.2831C25.0465 14.1208 25.1756 13.9277 25.2634 13.715C25.3511 13.5024 25.3959 13.2745 25.3949 13.0445C25.3949 12.5796 25.2117 12.1394 24.8809 11.8085ZM14.5313 21.7343H11.4688V16.1562H14.5313V21.7343ZM20.4895 12.8285V21.7343H16.2813V15.4999C16.2813 14.8956 15.7918 14.4062 15.1875 14.4062H10.8125C10.2082 14.4062 9.71877 14.8956 9.71877 15.4999V21.7343H5.51056V12.8285H2.88556L13.0028 2.71948L13.6344 3.35112L23.1172 12.8285H20.4895Z" fill="#888888"/>
</svg>
