<svg width="62" height="62" viewBox="0 0 62 62" fill="none" xmlns="http://www.w3.org/2000/svg">
<path d="M57.1562 4.84375H4.84375C4.07324 4.84465 3.33455 5.15113 2.78971 5.69596C2.24488 6.2408 1.9384 6.97949 1.9375 7.75V54.25C1.9384 55.0205 2.24488 55.7592 2.78971 56.304C3.33455 56.8489 4.07324 57.1554 4.84375 57.1562H57.1562C57.9268 57.1554 58.6655 56.8489 59.2103 56.304C59.7551 55.7592 60.0616 55.0205 60.0625 54.25V7.75C60.0616 6.97949 59.7551 6.2408 59.2103 5.69596C58.6655 5.15113 57.9268 4.84465 57.1562 4.84375ZM56.1875 53.2812H5.8125V8.71875H56.1875V53.2812Z" fill="#06AA51"/>
<path d="M18.4062 29.0625H22.2812V24.2188H27.125V20.3438H22.2812V15.5H18.4062V20.3438H13.5625V24.2188H18.4062V29.0625Z" fill="#06AA51"/>
<path d="M23.7687 34.5225L20.3437 37.9475L16.9187 34.5225L14.1787 37.2625L17.6037 40.6875L14.1787 44.1125L16.9187 46.8525L20.3437 43.4275L23.7687 46.8525L26.5087 44.1125L23.0837 40.6875L26.5087 37.2625L23.7687 34.5225Z" fill="#06AA51"/>
<path d="M34.875 20.3438H48.4375V24.2188H34.875V20.3438Z" fill="#06AA51"/>
<path d="M34.875 34.875H48.4375V38.75H34.875V34.875Z" fill="#06AA51"/>
<path d="M34.875 42.625H48.4375V46.5H34.875V42.625Z" fill="#06AA51"/>
</svg>
