<svg width="62" height="62" viewBox="0 0 62 62" fill="none" xmlns="http://www.w3.org/2000/svg">
<path d="M25.5879 0C26.1495 2.3683e-05 26.6921 0.203407 27.1153 0.572537C27.5386 0.941668 27.8139 1.45157 27.8902 2.00796L27.9119 2.32402V17.1792C32.2155 17.6996 36.2202 19.648 39.2857 22.713C42.3512 25.7779 44.3004 29.7823 44.8215 34.0857H59.6767C60.2655 34.0859 60.8323 34.3096 61.2626 34.7115C61.6928 35.1135 61.9545 35.6639 61.9946 36.2513C62.0347 36.8388 61.8504 37.4196 61.4788 37.8763C61.1072 38.3331 60.5761 38.6318 59.9928 38.712L59.6767 38.7337H44.8215C44.3004 43.0372 42.3512 47.0415 39.2857 50.1065C36.2202 53.1714 32.2155 55.1199 27.9119 55.6402V59.6531C27.918 60.2461 27.6971 60.819 27.2944 61.2544C26.8918 61.6899 26.338 61.9549 25.7463 61.9953C25.1547 62.0357 24.5699 61.8484 24.1119 61.4717C23.6538 61.095 23.3571 60.5575 23.2825 59.9691L23.2639 59.65V55.6371C18.9624 55.1158 14.9598 53.1676 11.8957 50.104C8.83152 47.0405 6.88265 43.0382 6.36048 38.7368H2.34766C1.75464 38.7429 1.18175 38.522 0.746306 38.1194C0.310857 37.7168 0.0457966 37.1629 0.00540132 36.5712C-0.0349939 35.9796 0.152332 35.3948 0.529021 34.9368C0.905709 34.4787 1.44326 34.182 2.03159 34.1074L2.34766 34.0857H6.35738C6.87841 29.7827 8.82715 25.7787 11.892 22.7138C14.9569 19.649 18.9609 17.7002 23.2639 17.1792V2.32402C23.2639 1.70765 23.5087 1.11653 23.9446 0.680691C24.3804 0.244852 24.9715 0 25.5879 0ZM23.2639 38.7337H11.0519C11.5425 41.7961 12.9871 44.6255 15.1798 46.8189C17.3726 49.0122 20.2016 50.4575 23.2639 50.9488V38.7337ZM40.1239 38.7337H27.9119V50.9457C30.9733 50.4547 33.8017 49.0103 35.9944 46.8182C38.187 44.6261 39.6321 41.7981 40.1239 38.7368V38.7337ZM23.267 21.8706C20.2036 22.3608 17.3732 23.8055 15.1792 25.9989C12.9852 28.1924 11.5397 31.0224 11.0488 34.0857H23.2639V21.8706H23.267ZM27.915 21.8706L27.9119 34.0857H40.127C39.6541 31.1379 38.2968 28.4033 36.235 26.2441C34.1732 24.0849 31.5041 22.6029 28.5812 21.9946L27.9119 21.8706H27.915Z" fill="#06AA51"/>
</svg>
