<svg width="62" height="44" viewBox="0 0 62 44" fill="none" xmlns="http://www.w3.org/2000/svg">
<path d="M41.85 20.4441C41.85 26.6676 34.1 31.3352 34.1 36.0028H27.9C27.9 31.3352 20.15 26.6676 20.15 20.4441C20.15 14.4385 25.017 9.55304 31 9.55304C36.983 9.55304 41.85 14.4385 41.85 20.4441ZM34.1 39.1146H27.9V43.7822H34.1V39.1146ZM62 22C62 13.4116 58.528 5.63225 52.917 0L49.631 3.29844C52.0805 5.75234 54.0233 8.66752 55.3479 11.8768C56.6725 15.086 57.3529 18.5262 57.35 22C57.35 29.2815 54.405 35.9095 49.631 40.7016L52.917 44C55.8001 41.1143 58.0867 37.6852 59.6454 33.9098C61.2042 30.1343 62.0044 26.0869 62 22ZM4.65001 22C4.65001 14.7185 7.59501 8.09052 12.369 3.29844L9.08301 0C6.19993 2.88568 3.91333 6.31477 2.35457 10.0902C0.79582 13.8657 -0.00435778 17.9132 1.78489e-05 22C1.78489e-05 30.5884 3.47202 38.3678 9.08301 44L12.369 40.7016C9.9195 38.2477 7.97673 35.3325 6.65212 32.1232C5.32751 28.914 4.64714 25.4738 4.65001 22ZM48.05 22C48.05 26.7298 46.128 30.9929 43.059 34.1047L46.345 37.4031C48.3633 35.3828 49.9637 32.9818 51.0544 30.3384C52.145 27.6949 52.7043 24.8612 52.7 22C52.7 15.9943 50.282 10.5488 46.345 6.59689L43.059 9.89533C46.128 13.0071 48.05 17.2702 48.05 22ZM15.655 37.4031L18.941 34.1047C15.841 30.9929 13.95 26.7298 13.95 22C13.95 17.2702 15.872 13.0071 18.941 9.89533L15.655 6.59689C13.6367 8.61725 12.0363 11.0182 10.9456 13.6616C9.855 16.3051 9.29574 19.1388 9.30001 22C9.30001 28.0057 11.718 33.4512 15.655 37.4031Z" fill="#06AA51"/>
</svg>
